# xmcd
#
# Track frame offsets:
#  150
#  5719
#  16193
#  36085
#  61682
#  77955
#  95161
#  110925
#  125337
#  134386
#  154293
#  181451
#  217123
#  238279
#  262231
#  287482
#
# Disc length: 4384 seconds
#
# Revision: 0
# Processed by: cddbd v1.5.1PL2 Copyright (c) Steve Scherf et al.
# Submitted via: Collectorz.com_Music_Collector 6.11
#
DISCID=f2111e10
DTITLE=Bruce Springsteen and Friends - Christmas At Harry's [CD1)
DYEAR=2004
DGENRE=Rock
TTITLE0=Intro/"Set This Place On Fire"
TTITLE1=Does This Bus Stop At 82nd Street?
TTITLE2=Wild Billy's Circus Story
TTITLE3=This Hard Land
TTITLE4=Run Run Rudolph
TTITLE5=From Small Things (Big Things One Day Come)
TTITLE6=Two Hearts
TTITLE7=Rendezvous
TTITLE8="Special Present"
TTITLE9=Further On (Up The Road)
TTITLE10=Talk To Me
TTITLE11=Spirit In The Night
TTITLE12=All That Heaven Will Allow
TTITLE13=Seaside Bar Song
TTITLE14=Waiting On A Sunny Day
TTITLE15=Bruce Springsteen and Southside Johnny - The Fever
EXTD=
EXTT0=
EXTT1=
EXTT2=
EXTT3=
EXTT4=
EXTT5=
EXTT6=
EXTT7=
EXTT8=
EXTT9=
EXTT10=
EXTT11=
EXTT12=
EXTT13=
EXTT14=
EXTT15=
PLAYORDER=
